<svg width="24" height="24" viewBox="0 0 24 24" fill="none" xmlns="http://www.w3.org/2000/svg">
<path fill-rule="evenodd" clip-rule="evenodd" d="M16 10.5C16 9.43913 15.5786 8.42172 14.8284 7.67157C14.0783 6.92143 13.0609 6.5 12 6.5C10.9391 6.5 9.92172 6.92143 9.17157 7.67157C8.42143 8.42172 8 9.43913 8 10.5C8 11.5609 8.42143 12.5783 9.17157 13.3284C9.92172 14.0786 10.9391 14.5 12 14.5C13.0609 14.5 14.0783 14.0786 14.8284 13.3284C15.5786 12.5783 16 11.5609 16 10.5ZM12 8C12.663 8 13.2989 8.26339 13.7678 8.73223C14.2366 9.20107 14.5 9.83696 14.5 10.5C14.5 11.163 14.2366 11.7989 13.7678 12.2678C13.2989 12.7366 12.663 13 12 13C11.337 13 10.7011 12.7366 10.2322 12.2678C9.76339 11.7989 9.5 11.163 9.5 10.5C9.5 9.83696 9.76339 9.20107 10.2322 8.73223C10.7011 8.26339 11.337 8 12 8Z" fill="white"/>
<path fill-rule="evenodd" clip-rule="evenodd" d="M17.461 16.975L17.916 16.382C19.078 14.835 19.819 13.55 20.14 12.526C20.374 11.779 20.5 10.986 20.5 10.166C20.5 5.657 16.694 2 12.002 2C7.307 2 3.5 5.656 3.5 10.167C3.5 10.992 3.627 11.789 3.864 12.54C4.106 13.306 4.584 14.22 5.298 15.28L5.674 15.823C5.939 16.193 6.229 16.579 6.545 16.981L7.04 17.597C7.211 17.807 7.39 18.02 7.574 18.238L8.147 18.903L8.759 19.593L9.411 20.307L10.102 21.046L10.832 21.809L10.95 21.93L11.213 22.2L12.002 23L12.402 22.596L13.172 21.808L13.902 21.044L14.594 20.304C14.706 20.184 14.817 20.063 14.925 19.944L15.558 19.241C15.762 19.011 15.96 18.785 16.151 18.563L16.704 17.909C16.794 17.802 16.881 17.696 16.966 17.592L17.461 16.975ZM12.001 3.5C15.923 3.5 19 6.541 19 10.167C19 10.832 18.898 11.473 18.709 12.077C18.464 12.855 17.846 13.977 16.722 15.475L16.282 16.048L15.801 16.648L15.556 16.945L15.01 17.589C14.826 17.802 14.636 18.019 14.44 18.242L13.814 18.937C13.709 19.051 13.604 19.167 13.496 19.283L13.493 19.287L12.813 20.013L12.093 20.765L12.001 20.86L11.911 20.766L11.191 20.015L10.513 19.289L9.874 18.589L9.276 17.916L8.714 17.264C8.54257 17.0621 8.3729 16.8588 8.205 16.654L7.72 16.048C7.42 15.667 7.147 15.304 6.901 14.959L6.537 14.434C5.865 13.435 5.475 12.66 5.295 12.088C5.09896 11.4665 4.99946 10.8187 5 10.167C5 6.54 8.077 3.5 12.001 3.5Z" fill="white"/>
</svg>
