<svg width="48" height="48" viewBox="0 0 48 48" fill="none" xmlns="http://www.w3.org/2000/svg">
<path fill-rule="evenodd" clip-rule="evenodd" d="M24 2C36.148 2 45.998 11.85 45.998 24C45.998 36.148 36.148 45.998 23.998 45.998C11.85 45.998 2 36.148 2 23.998C2 11.85 11.85 2 24 2ZM24 38.346C25.8983 38.3683 27.7822 38.0136 29.5425 37.3025C31.3027 36.5915 32.9044 35.5381 34.2546 34.2036C35.6048 32.869 36.6768 31.2798 37.4083 29.5279C38.1399 27.7761 38.5165 25.8964 38.5164 23.998C38.5163 22.0995 38.1394 20.22 37.4076 18.4682C36.6758 16.7165 35.6036 15.1274 34.2532 13.793C32.9028 12.4586 31.301 11.4055 29.5406 10.6947C27.7803 9.98386 25.8963 9.62945 23.998 9.652C20.2223 9.69658 16.6163 11.2278 13.9621 13.9135C11.3079 16.5992 9.8194 20.223 9.8194 23.999C9.8194 27.775 11.3079 31.3988 13.9621 34.0845C16.6163 36.7702 20.2223 38.3014 23.998 38.346H24ZM24 31.04C22.1329 31.04 20.3422 30.2983 19.022 28.978C17.7017 27.6578 16.96 25.8671 16.96 24C16.96 22.1329 17.7017 20.3422 19.022 19.022C20.3422 17.7017 22.1329 16.96 24 16.96C25.8671 16.96 27.6578 17.7017 28.978 19.022C30.2983 20.3422 31.04 22.1329 31.04 24C31.04 25.8671 30.2983 27.6578 28.978 28.978C27.6578 30.2983 25.8671 31.04 24 31.04Z" fill="#CC0000"/>
</svg>
