<svg width="24" height="24" viewBox="0 0 24 24" fill="none" xmlns="http://www.w3.org/2000/svg">
<path d="M16.5 3C19.02 3 21 5.19 21 7.99C21 11.69 17.72 14.93 12.75 19.85L12 20.59L11.26 19.86L11.22 19.82C6.27 14.92 3 11.69 3 7.99C3 5.19 4.98 3 7.5 3C8.9 3 10.29 3.71 11.21 4.89L12 5.9L12.79 4.89C13.71 3.71 15.1 3 16.5 3ZM16.5 2C14.76 2 13.09 2.88 12 4.28C10.91 2.88 9.24 2 7.5 2C4.42 2 2 4.64 2 7.99C2 12.11 5.4 15.47 10.55 20.57L12 22L13.45 20.56C18.6 15.47 22 12.11 22 7.99C22 4.64 19.58 2 16.5 2ZM11.33 10.86C11.53 11 11.86 11.12 12.33 11.22C12.8 11.32 13.19 11.44 13.51 11.57C14.5 11.97 15 12.66 15 13.64C15 14.34 14.72 14.91 14.17 15.35C13.84 15.61 13.44 15.78 13 15.89V17H11V15.84C10.82 15.79 10.63 15.74 10.47 15.65C10.01 15.42 9.55 15.1 9.29 14.7C9.15 14.48 9.06 14.24 9 14H11C11.05 14.09 11.07 14.18 11.15 14.25C11.38 14.44 11.69 14.54 12.07 14.54C12.43 14.54 12.7 14.47 12.89 14.32C13.08 14.17 13.17 13.97 13.17 13.73C13.17 13.48 13.06 13.28 12.83 13.13C12.6 12.98 12.24 12.86 11.73 12.74C10.06 12.35 9.22 11.58 9.22 10.4C9.22 9.72 9.48 9.14 10 8.69C10.28 8.44 10.62 8.26 11 8.15V7H13V8.12C13.46 8.23 13.85 8.41 14.18 8.69C14.59 9.05 14.9 9.48 15 10H13C12.96 9.91 12.9 9.83 12.84 9.76C12.67 9.57 12.4 9.47 12.03 9.47C11.71 9.47 11.47 9.55 11.29 9.71C11.12 9.87 11.03 10.07 11.03 10.31C11.03 10.53 11.13 10.72 11.33 10.86Z" fill="white"/>
</svg>
