<svg width="24" height="24" viewBox="0 0 24 24" fill="none" xmlns="http://www.w3.org/2000/svg">
<path d="M17.0006 4H16.0006H6.57056C5.50056 4 4.59056 4.67 4.38056 5.61L3.04056 11.61C2.77056 12.85 3.82056 14 5.23056 14H9.46056L7.94056 18.94C7.62056 19.97 8.46056 21 9.62056 21C10.2006 21 10.7606 20.76 11.1406 20.35L17.0006 14H21.0006V4H17.0006ZM10.4006 19.67C10.2106 19.88 9.92056 20 9.62056 20C9.36056 20 9.12056 19.89 8.99056 19.7C8.92056 19.6 8.84056 19.44 8.90056 19.23L10.4206 14.29L10.8206 13H9.46056H5.23056C4.82056 13 4.43056 12.83 4.20056 12.54C4.08056 12.39 3.95056 12.14 4.02056 11.82L5.36056 5.82C5.46056 5.35 5.97056 5 6.57056 5H16.0006V13.61L10.4006 19.67ZM20.0006 13H17.0006V5H20.0006V13Z" fill="white"/>
</svg>
